# xmcd CD database file
#
# Track frame offsets:
#	150
#	18382
#	39361
#	69591
#	92134
#	123234
#	156516
#	176941
#	196966
#	228380
#	251646
#	275904
#	297011
#
# Disc length: 4254 seconds
#
# Revision: 0
# Processed by: cddbd v1.4PL0 Copyright (c) Steve Scherf et al.
# Submitted via: CDex 1.50beta10
#
DISCID=be109c0d
DTITLE=Coral Corina Novelino - Para Ser Feliz
DYEAR=2000
DGENRE=New Age
TTITLE0=Despertar
TTITLE1=Amor luz bendita
TTITLE2=PAra ser Feliz
TTITLE3=Cantata para Jesus
TTITLE4=Alegria de Viver
TTITLE5=Brasil, Caminho da Esperança
TTITLE6=Brasil te amamos
TTITLE7=Sou Espírito
TTITLE8=Ensine-me a amar
TTITLE9=Chegou a hora
TTITLE10=É hora irmao
TTITLE11=Saudação a Maria
TTITLE12=Encontro
EXTD=YEAR: 2000
EXTT0=
EXTT1=
EXTT2=
EXTT3=
EXTT4=
EXTT5=
EXTT6=
EXTT7=
EXTT8=
EXTT9=
EXTT10=
EXTT11=
EXTT12=
PLAYORDER=
